<svg xmlns="http://www.w3.org/2000/svg" viewBox="0 0 32 32">
  <defs>
    <linearGradient id="grad" x1="0%" y1="0%" x2="100%" y2="100%">
      <stop offset="0%" style="stop-color:#8b5cf6;stop-opacity:1" />
      <stop offset="100%" style="stop-color:#06b6d4;stop-opacity:1" />
    </linearGradient>
  </defs>
  <rect width="32" height="32" rx="8" fill="url(#grad)"/>
  <path d="M16 6c-3.5 0-6 2.5-6 5.5 0 1.5.5 2.8 1.5 3.8-.3.8-.5 1.7-.5 2.7 0 3 2 5 5 5s5-2 5-5c0-1-.2-1.9-.5-2.7 1-.9 1.5-2.3 1.5-3.8 0-3-2.5-5.5-6-5.5zm-2 5c0-.6.4-1 1-1s1 .4 1 1-.4 1-1 1-1-.4-1-1zm4 0c0-.6.4-1 1-1s1 .4 1 1-.4 1-1 1-1-.4-1-1zm-2 8c-1.5 0-2.5-1-2.5-2h5c0 1-1 2-2.5 2z" fill="white"/>
</svg>